<svg width="512" height="512" viewBox="0 0 512 512" fill="none" xmlns="http://www.w3.org/2000/svg">
  <defs>
    <linearGradient id="grad1" x1="100%" y1="0%" x2="0%" y2="100%">
      <stop offset="0%" stop-color="#4F46E5"/>
      <stop offset="50%" stop-color="#7C3AED"/>
      <stop offset="100%" stop-color="#DB2777"/>
    </linearGradient>
    <linearGradient id="grad2" x1="0%" y1="0%" x2="100%" y2="100%">
      <stop offset="0%" stop-color="#3B82F6"/>
      <stop offset="50%" stop-color="#6366F1"/>
      <stop offset="100%" stop-color="#8B5CF6"/>
    </linearGradient>
  </defs>
  <rect width="512" height="512" rx="112" fill="#030712"/>
  <g transform="translate(256, 256) scale(0.8)">
    <path d="M0 -180 C 30 -50, 50 -30, 180 0 C 50 30, 30 50, 0 180 C -30 50, -50 30, -180 0 C -50 -30, -30 -50, 0 -180 Z" fill="url(#grad1)"/>
    <path d="M0 -180 C 30 -50, 50 -30, 180 0 C 50 30, 30 50, 0 180 C -30 50, -50 30, -180 0 C -50 -30, -30 -50, 0 -180 Z" fill="url(#grad2)" transform="rotate(45) scale(0.7)"/>
    <circle cx="0" cy="0" r="40" fill="#FFFFFF"/>
  </g>
</svg>