<svg width="32" height="32" viewBox="0 0 32 32" fill="none" xmlns="http://www.w3.org/2000/svg">
  <!-- Background with subtle gradient -->
  <defs>
    <linearGradient id="bgGrad" x1="0" y1="0" x2="32" y2="32">
      <stop offset="0%" stop-color="#111111"/>
      <stop offset="100%" stop-color="#0A0A0A"/>
    </linearGradient>
    <linearGradient id="coreGrad" x1="12" y1="8" x2="20" y2="24">
      <stop offset="0%" stop-color="#FFFFFF"/>
      <stop offset="100%" stop-color="#C0C0C0"/>
    </linearGradient>
    <linearGradient id="ringGrad" x1="6" y1="6" x2="26" y2="26">
      <stop offset="0%" stop-color="#FFFFFF" stop-opacity="0.5"/>
      <stop offset="50%" stop-color="#FFFFFF" stop-opacity="0.15"/>
      <stop offset="100%" stop-color="#FFFFFF" stop-opacity="0.4"/>
    </linearGradient>
  </defs>

  <!-- Base rounded square -->
  <rect width="32" height="32" rx="7" fill="url(#bgGrad)"/>
  <rect x="0.5" y="0.5" width="31" height="31" rx="6.5" stroke="white" stroke-opacity="0.08"/>

  <!-- Outer orbital ring -->
  <circle cx="16" cy="16" r="10.5" stroke="url(#ringGrad)" stroke-width="0.8" fill="none"/>

  <!-- Central hexagonal core (orchestrator) -->
  <path d="M16 7.5L22.5 11.25V18.75L16 22.5L9.5 18.75V11.25L16 7.5Z" fill="url(#coreGrad)" fill-opacity="0.12" stroke="white" stroke-opacity="0.6" stroke-width="0.7"/>

  <!-- Inner hexagon detail -->
  <path d="M16 10.5L20 12.75V17.25L16 19.5L12 17.25V12.75L16 10.5Z" fill="url(#coreGrad)" fill-opacity="0.06" stroke="white" stroke-opacity="0.3" stroke-width="0.5"/>

  <!-- Central core dot (AI brain) -->
  <circle cx="16" cy="15" r="2.2" fill="white" fill-opacity="0.95"/>
  <circle cx="16" cy="15" r="1.1" fill="#0C0C0C"/>
  <circle cx="16" cy="15" r="0.5" fill="white" fill-opacity="0.9"/>

  <!-- Agent nodes (3 primary sub-agents on orbital ring) -->
  <!-- Top agent -->
  <circle cx="16" cy="5.5" r="1.8" fill="white" fill-opacity="0.9"/>
  <circle cx="16" cy="5.5" r="0.8" fill="#0C0C0C"/>
  <!-- Bottom-right agent -->
  <circle cx="25.1" cy="20.5" r="1.8" fill="white" fill-opacity="0.9"/>
  <circle cx="25.1" cy="20.5" r="0.8" fill="#0C0C0C"/>
  <!-- Bottom-left agent -->
  <circle cx="6.9" cy="20.5" r="1.8" fill="white" fill-opacity="0.9"/>
  <circle cx="6.9" cy="20.5" r="0.8" fill="#0C0C0C"/>

  <!-- Connection lines from core to agents -->
  <line x1="16" y1="12.8" x2="16" y2="7.3" stroke="white" stroke-opacity="0.35" stroke-width="0.6"/>
  <line x1="17.8" y1="16.5" x2="23.3" y2="19.7" stroke="white" stroke-opacity="0.35" stroke-width="0.6"/>
  <line x1="14.2" y1="16.5" x2="8.7" y2="19.7" stroke="white" stroke-opacity="0.35" stroke-width="0.6"/>

  <!-- Magnifying glass accent (research symbol) -->
  <circle cx="16" cy="15" r="5.5" stroke="white" stroke-opacity="0.15" stroke-width="0.5" fill="none" stroke-dasharray="1.5 1.5"/>
  <line x1="20" y1="19.2" x2="23" y2="22.2" stroke="white" stroke-opacity="0.25" stroke-width="1" stroke-linecap="round"/>
</svg>