<svg width="512" height="512" viewBox="0 0 512 512" fill="none" xmlns="http://www.w3.org/2000/svg">
  <defs>
    <linearGradient id="metallic-base" x1="0%" y1="0%" x2="100%" y2="100%">
      <stop offset="0%" stop-color="#2A2A2A"/>
      <stop offset="50%" stop-color="#0C0C0C"/>
      <stop offset="100%" stop-color="#000000"/>
    </linearGradient>
    <linearGradient id="metallic-edge" x1="0%" y1="100%" x2="100%" y2="0%">
      <stop offset="0%" stop-color="#404040"/>
      <stop offset="50%" stop-color="#1A1A1A"/>
      <stop offset="100%" stop-color="#606060"/>
    </linearGradient>
    <linearGradient id="chrome-highlight" x1="0%" y1="0%" x2="100%" y2="100%">
      <stop offset="0%" stop-color="#FFFFFF"/>
      <stop offset="50%" stop-color="#A0A0A0"/>
      <stop offset="100%" stop-color="#FFFFFF"/>
    </linearGradient>
    <filter id="shadow" x="-10%" y="-10%" width="120%" height="120%">
      <feDropShadow dx="0" dy="12" stdDeviation="16" flood-color="#000" flood-opacity="0.6"/>
    </filter>
  </defs>
  
  <rect x="24" y="24" width="464" height="464" rx="120" fill="url(#metallic-edge)" filter="url(#shadow)"/>
  
  <rect x="32" y="32" width="448" height="448" rx="112" fill="url(#metallic-base)"/>
  
  <g transform="translate(146, 146) scale(0.9)">
    <path d="M40 240 V0 H140 C190 0 220 30 220 80 C220 120 195 145 160 155 L225 240 H165 L110 160 H85 V240 H40 Z" fill="url(#chrome-highlight)"/>
    <circle cx="40" cy="240" r="16" fill="#FFFFFF"/>
    <circle cx="40" cy="0" r="16" fill="#FFFFFF"/>
    <circle cx="225" cy="240" r="16" fill="#FFFFFF"/>
    <circle cx="140" cy="0" r="16" fill="#FFFFFF"/>
    <circle cx="220" cy="80" r="16" fill="#FFFFFF"/>
  </g>
  
  <path d="M 166 146 L 74 74" stroke="url(#chrome-highlight)" stroke-width="4" stroke-dasharray="8 8" opacity="0.4"/>
  <path d="M 346 366 L 438 438" stroke="url(#chrome-highlight)" stroke-width="4" stroke-dasharray="8 8" opacity="0.4"/>
</svg>